:SAMPLES-PER-SECOND 30
:FULLY-SPECIFIED
:DEGREES
1490
root  -50.4696 39.1611 32.1396 176.882 -28.617 174.54
RightUpLeg  3.52628 14.1031 1.36769
RightLeg  32.3147 0.305116 -0.0418145
RightFoot  -23.5532 -1.04553 -8.26003
RightToes  0.000482159 0.542163 -0.142577
Spine  8.16636 2.53743 7.92815
Spine1  11.8279 4.86855 -5.45917
HEad  14.3615 -12.5663 3.56091
LeftShoulder1  7.56254 -11.4449 -44.0365
LeftArm  -9.139 23.2997 -29.1288
LeftForeArm  38.8578 -29.7444 -4.34287
LeftHand  -0.25398 0.0180481 5.50724
RightShoulder  6.27186 10.5956 38.4212
RightArm  5.3701 10.1003 39.1159
RightForeArm  -5.47449 37.728 8.99633
RightHand  -11.3929 24.6409 -42.3801
LeftUpLeg  -17.708 4.83907 8.90079
LeftLeg  4.46333 1.19623 0.1306
LeftFoot  -3.39976 0.44847 -6.15465
LeftToes  1.06246e-005 4.65854e-005 -8.18502e-006
1491
root  -51.9231 38.9373 31.6582 176.523 -26.6224 174.926
RightUpLeg  4.56122 14.4542 0.00832222
RightLeg  33.9669 1.09983 0.540008
RightFoot  -24.6264 -0.970441 -6.8971
RightToes  0.000482159 0.542163 -0.142577
Spine  8.36552 2.48731 8.43495
Spine1  12.3451 5.02019 -5.8504
HEad  13.966 -12.589 3.44952
LeftShoulder1  7.60621 -11.5339 -44.0286
LeftArm  -9.1645 23.0323 -29.246
LeftForeArm  37.9011 -28.6251 -4.14373
LeftHand  -0.25398 0.0180481 5.50724
RightShoulder  6.46379 10.9835 38.5493
RightArm  5.02021 11.7599 38.7695
RightForeArm  -5.96103 38.3688 9.22648
RightHand  -11.6674 24.9209 -42.9357
LeftUpLeg  -17.8023 4.89585 8.17018
LeftLeg  5.26596 0.121965 -0.465609
LeftFoot  -1.844 0.641734 -7.52805
LeftToes  1.06246e-005 4.65854e-005 -8.18502e-006
1492
root  -53.4431 38.6769 31.1634 176.203 -24.8973 175.206
RightUpLeg  5.20442 14.5817 -1.68738
RightLeg  36.3881 1.67694 1.06377
RightFoot  -25.2416 -0.739104 -4.69145
RightToes  0.000482159 0.542163 -0.142577
Spine  8.67142 2.5935 8.99244
Spine1  12.9009 5.26975 -5.97897
HEad  13.5889 -13.4554 3.74693
LeftShoulder1  7.7051 -11.6534 -44.2607
LeftArm  -8.88514 22.3935 -29.2354
LeftForeArm  37.2199 -27.6992 -3.97641
LeftHand  -0.25398 0.0180481 5.50724
RightShoulder  6.51295 11.0609 38.6455
RightArm  5.03628 13.4843 37.8296
RightForeArm  -6.7067 38.4506 9.29533
RightHand  -11.9174 25.2114 -43.3844
LeftUpLeg  -18.7694 4.02869 6.91445
LeftLeg  9.56695 -1.36941 -0.281492
LeftFoot  3.22855 1.06412 -8.48147
LeftToes  1.06246e-005 4.65854e-005 -8.18502e-006
1493
root  -54.8927 38.4378 30.6959 175.77 -22.6919 175.06
RightUpLeg  4.80644 15.0811 -3.84205
RightLeg  40.4707 2.08603 1.62989
RightFoot  -23.9563 -0.178068 0.0111991
RightToes  0.000482159 0.542163 -0.142577
Spine  10.2103 3.12939 8.77597
Spine1  12.789 5.84295 -5.7295
HEad  13.2664 -14.6694 4.24675
LeftShoulder1  7.87362 -11.836 -44.7116
LeftArm  -8.59885 21.8116 -29.0181
LeftForeArm  36.8044 -27.4573 -3.94537
LeftHand  -0.25398 0.0180481 5.50724
RightShoulder  6.47031 10.8573 38.9684
RightArm  5.56706 15.5924 36.3952
RightForeArm  -7.33986 37.5675 9.05345
RightHand  -12.1348 25.5108 -43.7063
LeftUpLeg  -19.9028 3.52811 5.76471
LeftLeg  15.2601 -2.4706 -0.448666
LeftFoot  7.5025 1.36845 -8.52515
LeftToes  1.06246e-005 4.65854e-005 -8.18502e-006
1494
root  -56.1937 38.3578 30.3032 175.711 -19.6982 174.306
RightUpLeg  1.80399 15.2632 -6.78015
RightLeg  46.8119 1.68095 1.56209
RightFoot  -18.3547 0.162137 4.7781
RightToes  0.000482159 0.542163 -0.142577
Spine  12.8721 3.98051 7.84967
Spine1  11.8483 6.83829 -5.80809
HEad  12.8489 -15.765 4.5537
LeftShoulder1  8.0255 -12.0533 -44.9491
LeftArm  -8.26589 21.4792 -28.5638
LeftForeArm  36.5172 -28.2356 -4.12956
LeftHand  -0.25398 0.0180481 5.50724
RightShoulder  6.53784 10.8481 39.4428
RightArm  6.08327 18.0762 35.1399
RightForeArm  -7.76956 35.4603 8.44136
RightHand  -12.2849 25.7671 -43.8599
LeftUpLeg  -20.5397 6.21232 4.08817
LeftLeg  20.1545 -3.52895 -1.09962
LeftFoot  7.50811 1.24872 -7.77529
LeftToes  1.06246e-005 4.65854e-005 -8.18502e-006
1495
root  -57.3625 38.4555 30.0276 176.187 -16.7478 173.355
RightUpLeg  -3.66452 13.6762 -10.0088
RightLeg  54.1238 -0.0149502 -0.475959
RightFoot  -9.2529 -0.138045 5.70393
RightToes  0.000482159 0.542163 -0.142577
Spine  15.7939 4.57966 7.29715
Spine1  10.7087 7.9011 -6.99144
HEad  12.0827 -16.7465 4.569
LeftShoulder1  8.14014 -12.2985 -44.8819
LeftArm  -7.48944 20.948 -27.6793
LeftForeArm  36.1591 -29.7474 -4.48368
LeftHand  -0.25398 0.0180481 5.50724
RightShoulder  6.73531 11.225 39.6115
RightArm  6.14876 20.8351 34.5633
RightForeArm  -8.61511 32.3457 7.6097
RightHand  -12.3897 25.9713 -43.9333
LeftUpLeg  -20.5797 9.99429 1.8682
LeftLeg  22.83 -3.54313 -1.30083
LeftFoot  5.02277 0.890628 -6.39115
LeftToes  1.06246e-005 4.65854e-005 -8.18502e-006
1496
root  -58.4215 38.6295 29.8747 176.888 -15.0452 172.897
RightUpLeg  -9.37622 9.72879 -12.1943
RightLeg  60.0088 -2.07115 -4.37869
RightFoot  -2.15487 -0.27936 3.24976
RightToes  0.000482159 0.542163 -0.142577
Spine  18.492 4.49583 7.68131
Spine1  9.94754 8.443 -8.57019
HEad  10.8489 -17.8623 4.40888
LeftShoulder1  8.25671 -12.5204 -44.8951
LeftArm  -6.71515 19.7323 -26.5436
LeftForeArm  35.6424 -31.3978 -4.88907
LeftHand  -0.25398 0.0180481 5.50724
RightShoulder  6.86581 11.6879 39.1
RightArm  5.93305 23.9805 34.4488
RightForeArm  -10.5341 28.7275 6.76394
RightHand  -12.5368 26.2 -44.1078
LeftUpLeg  -20.5516 11.3833 -0.151728
LeftLeg  23.5184 -2.45289 -0.837918
LeftFoot  3.45441 0.555666 -4.45849
LeftToes  1.06246e-005 4.65854e-005 -8.18502e-006
1497
root  -59.3919 38.908 29.7801 177.566 -14.6111 173.502
RightUpLeg  -13.7655 4.40316 -12.1869
RightLeg  62.7438 -3.61964 -8.11827
RightFoot  -0.558794 -0.121802 1.18992
RightToes  0.000482159 0.542163 -0.142577
Spine  20.706 3.94928 9.25329
Spine1  9.58911 8.53895 -9.45273
HEad  9.26166 -19.2717 4.35988
LeftShoulder1  8.35095 -12.6883 -44.9397
LeftArm  -6.94337 18.003 -25.9765
LeftForeArm  34.8024 -32.8433 -5.27812
LeftHand  -0.25398 0.0180481 5.50724
RightShoulder  6.85169 11.9454 38.2887
RightArm  5.54041 27.5078 33.9363
RightForeArm  -13.0764 25.0994 6.02881
RightHand  -12.7349 26.4884 -44.3639
LeftUpLeg  -20.551 10.8278 -1.1472
LeftLeg  22.8676 -1.53739 -0.378907
LeftFoot  3.58747 0.289333 -2.38208
LeftToes  1.06246e-005 4.65854e-005 -8.18502e-006
1498
root  -60.2551 39.2919 29.6837 178.421 -14.3337 174.875
RightUpLeg  -17.1675 -0.441014 -10.1341
RightLeg  61.8017 -4.33542 -9.27256
RightFoot  -2.752 -0.120103 1.39589
RightToes  0.000482159 0.542163 -0.142577
Spine  22.4112 3.5783 11.4527
Spine1  9.35497 8.79842 -9.72882
HEad  7.50232 -20.789 4.70807
LeftShoulder1  8.37241 -12.8198 -44.6817
LeftArm  -8.17724 16.4341 -26.3523
LeftForeArm  33.432 -34.2689 -5.7065
LeftHand  -0.25398 0.0180481 5.50724
RightShoulder  6.80828 12.0514 37.729
RightArm  3.79311 31.0365 32.4361
RightForeArm  -14.101 21.6183 5.7893
RightHand  -12.8882 26.7632 -44.493
LeftUpLeg  -20.533 11.1766 -1.30472
LeftLeg  21.2853 -1.58114 -0.347877
LeftFoot  3.96156 0.0778036 -0.753919
LeftToes  1.06246e-005 4.65854e-005 -8.18502e-006
1499
root  -60.9834 39.6612 29.5869 179.733 -13.5977 176.165
RightUpLeg  -20.1856 -3.80866 -7.11492
RightLeg  57.6104 -4.50171 -8.09061
RightFoot  -5.18094 -0.164901 2.37482
RightToes  0.000482159 0.542163 -0.142577
Spine  23.8311 3.6803 13.1075
Spine1  9.08925 9.42692 -9.99403
HEad  5.69282 -22.1851 5.31335
LeftShoulder1  8.36354 -12.9367 -44.3002
LeftArm  -9.37131 15.4743 -26.9153
LeftForeArm  31.8253 -36.0011 -6.24573
LeftHand  -0.25398 0.0180481 5.50724
RightShoulder  6.80248 12.1754 37.3584
RightArm  -1.22989 34.249 30.2022
RightForeArm  -11.313 18.0185 6.60642
RightHand  -12.9483 26.9506 -44.4425
LeftUpLeg  -20.7425 13.0271 -1.56314
LeftLeg  19.2138 -2.19059 -0.505969
LeftFoot  4.11771 -0.0815891 0.416332
LeftToes  1.06246e-005 4.65854e-005 -8.18502e-006
